# xmcd
# 
# Track frame offsets:
#     150
#     7588
#     21078
#     33203
#     48483
#     58213
#     70331
#     84500
#     98242
#     108836
#     124427
#     134558
# 
# Disc length: 1959
# 
# Revision: 4
# Processed by: cddbd v1.5.2PL0 Copyright (c) Steve Scherf et al.
# Submitted via: fre:ac v1.0.31
# 
DISCID=9c07a50c
DTITLE=Elvis Costello and the Attractions - Almost Blue
DYEAR=1981
DGENRE=Folk/Country
TTITLE0=Why Don't You Love Me (Like You Used to Do)?
TTITLE1=Sweet Dreams
TTITLE2=Success
TTITLE3=I'm Your Toy
TTITLE4=Tonight the Bottle Let Me Down
TTITLE5=Brown to Blue
TTITLE6=Good Year for the Roses
TTITLE7=Sittin' and Thinkin'
TTITLE8=Colour of the Blues
TTITLE9=Too Far Gone
TTITLE10=Honey Hush
TTITLE11=How Much I Lied
EXTD=spelling corrections YEAR: 1981
EXTT0=
EXTT1=
EXTT2=
EXTT3=
EXTT4=
EXTT5=
EXTT6=
EXTT7=
EXTT8=
EXTT9=
EXTT10=
EXTT11=
PLAYORDER=
